<mxfile host="app.diagrams.net" modified="2023-10-13T07:41:17.249Z" agent="Mozilla/5.0 (Windows NT 10.0; Win64; x64) AppleWebKit/537.36 (KHTML, like Gecko) Chrome/118.0.0.0 Safari/537.36" version="21.7.5" etag="92bPOb0RsvhENEh9o6NM" type="github">
  <diagram name="第 1 页" id="ct51Cvqw_7oru4A2f5Yp">
    <mxGraphModel>
      <root>
        <mxCell id="0" />
        <mxCell id="1" parent="0" />
      </root>
    </mxGraphModel>
  </diagram>
</mxfile>
